<svg xmlns="http://www.w3.org/2000/svg" viewBox="0 0 800 600" width="800" height="600">
<defs>
<linearGradient id="bg" x1="0" y1="0" x2="0" y2="1"><stop offset="0" stop-color="#13213b"/><stop offset="1" stop-color="#060c18"/></linearGradient>
<radialGradient id="gl" cx="0.7" cy="0.35" r="0.6"><stop offset="0" stop-color="#f5a524" stop-opacity=".22"/><stop offset="1" stop-color="#f5a524" stop-opacity="0"/></radialGradient>
<pattern id="grid" width="32" height="32" patternUnits="userSpaceOnUse"><path d="M32 0H0V32" fill="none" stroke="#fff" stroke-opacity=".05"/></pattern>
<linearGradient id="steel" x1="0" y1="0" x2="0" y2="1"><stop offset="0" stop-color="#2a3f68"/><stop offset="1" stop-color="#1b2d50"/></linearGradient>
<linearGradient id="amber" x1="0" y1="0" x2="0" y2="1"><stop offset="0" stop-color="#ffbe3d"/><stop offset="1" stop-color="#d98a0b"/></linearGradient>
</defs>
<rect width="800" height="600" fill="url(#bg)"/><rect width="800" height="600" fill="url(#grid)"/><rect width="800" height="600" fill="url(#gl)"/>
<ellipse cx="400.0" cy="470" rx="336.0" ry="18" fill="#000" opacity=".35"/><line x1="48.0" x2="752.0" y1="470" y2="470" stroke="#9fb0cf" stroke-opacity=".25"/>
<g>
<polygon points="150,210 620,210 675.0,155.0 205.0,155.0" fill="#2a3f68"/>
<polygon points="620,210 675.0,155.0 675.0,405.0 620,460" fill="#14233f"/>
<rect x="150" y="210" width="470" height="250" rx="6" fill="url(#steel)" stroke="#9fb0cf" stroke-opacity=".35"/>
<rect x="150" y="444" width="470" height="16" fill="#0b1629"/>
<rect x="168" y="232" width="131.60000000000002" height="137.5" rx="4" fill="none" stroke="#9fb0cf" stroke-opacity=".35"/>
<rect x="176" y="244" width="115.60000000000002" height="3" rx="1.5" fill="#000" opacity=".35"/><rect x="176" y="254" width="115.60000000000002" height="3" rx="1.5" fill="#000" opacity=".35"/><rect x="176" y="264" width="115.60000000000002" height="3" rx="1.5" fill="#000" opacity=".35"/><rect x="176" y="274" width="115.60000000000002" height="3" rx="1.5" fill="#000" opacity=".35"/><rect x="176" y="284" width="115.60000000000002" height="3" rx="1.5" fill="#000" opacity=".35"/><rect x="176" y="294" width="115.60000000000002" height="3" rx="1.5" fill="#000" opacity=".35"/><rect x="176" y="304" width="115.60000000000002" height="3" rx="1.5" fill="#000" opacity=".35"/><rect x="176" y="314" width="115.60000000000002" height="3" rx="1.5" fill="#000" opacity=".35"/><rect x="176" y="324" width="115.60000000000002" height="3" rx="1.5" fill="#000" opacity=".35"/><rect x="176" y="334" width="115.60000000000002" height="3" rx="1.5" fill="#000" opacity=".35"/><rect x="176" y="344" width="115.60000000000002" height="3" rx="1.5" fill="#000" opacity=".35"/>
<rect x="328.6" y="232" width="141.0" height="137.5" rx="4" fill="none" stroke="#9fb0cf" stroke-opacity=".35"/>
<rect x="497.8" y="232" width="94.0" height="90.0" rx="4" fill="#0a1426" stroke="#f5a524" stroke-opacity=".7"/>
<rect x="507.2" y="240" width="75.2" height="30.0" rx="2" fill="#0e3b2c"/>
<circle cx="521.3" cy="300.0" r="4" fill="#f5a524"/><circle cx="544.8" cy="300.0" r="4" fill="#22c55e"/><circle cx="568.3" cy="300.0" r="4" fill="#ef4444"/>
<rect x="150" y="390.0" width="470" height="6" fill="url(#amber)"/>
<rect x="463.5" y="129.0" width="16" height="30" rx="3" fill="#0b1629" stroke="#9fb0cf" stroke-opacity=".4"/>
</g>
</svg>
