<svg xmlns="http://www.w3.org/2000/svg" viewBox="0 0 800 600" width="800" height="600">
<defs>
<linearGradient id="bg" x1="0" y1="0" x2="0" y2="1"><stop offset="0" stop-color="#13213b"/><stop offset="1" stop-color="#060c18"/></linearGradient>
<radialGradient id="gl" cx="0.7" cy="0.35" r="0.6"><stop offset="0" stop-color="#f5a524" stop-opacity=".22"/><stop offset="1" stop-color="#f5a524" stop-opacity="0"/></radialGradient>
<pattern id="grid" width="32" height="32" patternUnits="userSpaceOnUse"><path d="M32 0H0V32" fill="none" stroke="#fff" stroke-opacity=".05"/></pattern>
<linearGradient id="steel" x1="0" y1="0" x2="0" y2="1"><stop offset="0" stop-color="#2a3f68"/><stop offset="1" stop-color="#1b2d50"/></linearGradient>
<linearGradient id="amber" x1="0" y1="0" x2="0" y2="1"><stop offset="0" stop-color="#ffbe3d"/><stop offset="1" stop-color="#d98a0b"/></linearGradient>
</defs>
<rect width="800" height="600" fill="url(#bg)"/><rect width="800" height="600" fill="url(#grid)"/><rect width="800" height="600" fill="url(#gl)"/>
<ellipse cx="400.0" cy="500" rx="336.0" ry="18" fill="#000" opacity=".35"/><line x1="48.0" x2="752.0" y1="500" y2="500" stroke="#9fb0cf" stroke-opacity=".25"/><g><rect x="120.0" y="120" width="136.0" height="380" rx="5" fill="url(#steel)" stroke="#9fb0cf" stroke-opacity=".45"/><rect x="136.8" y="142.8" width="100.8" height="53.2" rx="3" fill="#0a1426" stroke="#f5a524" stroke-opacity=".6"/><rect x="145.2" y="154.2" width="53.2" height="30.400000000000002" rx="2" fill="#0e3b2c"/><circle cx="212.4" cy="169.4" r="4.2" fill="#f5a524"/><circle cx="225.0" cy="169.4" r="4.2" fill="#22c55e"/><rect x="142.4" y="234.0" width="89.60000000000001" height="26.6" rx="2" fill="#0b1629" stroke="#9fb0cf" stroke-opacity=".35"/><rect x="148.0" y="239.7" width="11.200000000000001" height="15.200000000000001" rx="1" fill="#f5a524" opacity="1"/><rect x="169.0" y="239.7" width="11.200000000000001" height="15.200000000000001" rx="1" fill="#9fb0cf" opacity="0.5"/><rect x="190.0" y="239.7" width="11.200000000000001" height="15.200000000000001" rx="1" fill="#9fb0cf" opacity="0.5"/><rect x="211.0" y="239.7" width="11.200000000000001" height="15.200000000000001" rx="1" fill="#9fb0cf" opacity="0.5"/><rect x="142.4" y="275.79999999999995" width="89.60000000000001" height="26.6" rx="2" fill="#0b1629" stroke="#9fb0cf" stroke-opacity=".35"/><rect x="148.0" y="281.5" width="11.200000000000001" height="15.200000000000001" rx="1" fill="#f5a524" opacity="1"/><rect x="169.0" y="281.5" width="11.200000000000001" height="15.200000000000001" rx="1" fill="#9fb0cf" opacity="0.5"/><rect x="190.0" y="281.5" width="11.200000000000001" height="15.200000000000001" rx="1" fill="#9fb0cf" opacity="0.5"/><rect x="211.0" y="281.5" width="11.200000000000001" height="15.200000000000001" rx="1" fill="#9fb0cf" opacity="0.5"/><rect x="142.4" y="317.6" width="89.60000000000001" height="26.6" rx="2" fill="#0b1629" stroke="#9fb0cf" stroke-opacity=".35"/><rect x="148.0" y="323.3" width="11.200000000000001" height="15.200000000000001" rx="1" fill="#f5a524" opacity="1"/><rect x="169.0" y="323.3" width="11.200000000000001" height="15.200000000000001" rx="1" fill="#9fb0cf" opacity="0.5"/><rect x="190.0" y="323.3" width="11.200000000000001" height="15.200000000000001" rx="1" fill="#9fb0cf" opacity="0.5"/><rect x="211.0" y="323.3" width="11.200000000000001" height="15.200000000000001" rx="1" fill="#9fb0cf" opacity="0.5"/><rect x="142.4" y="359.4" width="89.60000000000001" height="26.6" rx="2" fill="#0b1629" stroke="#9fb0cf" stroke-opacity=".35"/><rect x="148.0" y="365.1" width="11.200000000000001" height="15.200000000000001" rx="1" fill="#f5a524" opacity="1"/><rect x="169.0" y="365.1" width="11.200000000000001" height="15.200000000000001" rx="1" fill="#9fb0cf" opacity="0.5"/><rect x="190.0" y="365.1" width="11.200000000000001" height="15.200000000000001" rx="1" fill="#9fb0cf" opacity="0.5"/><rect x="211.0" y="365.1" width="11.200000000000001" height="15.200000000000001" rx="1" fill="#9fb0cf" opacity="0.5"/><rect x="237.6" y="291.0" width="5.6000000000000005" height="45.6" rx="2" fill="#9fb0cf" opacity=".6"/><rect x="120.0" y="486" width="136.0" height="14" fill="#0b1629"/><rect x="260.0" y="120" width="136.0" height="380" rx="5" fill="url(#steel)" stroke="#9fb0cf" stroke-opacity=".45"/><rect x="276.8" y="142.8" width="100.8" height="53.2" rx="3" fill="#0a1426" stroke="#f5a524" stroke-opacity=".6"/><rect x="285.2" y="154.2" width="53.2" height="30.400000000000002" rx="2" fill="#0e3b2c"/><circle cx="352.4" cy="169.4" r="4.2" fill="#f5a524"/><circle cx="365.0" cy="169.4" r="4.2" fill="#22c55e"/><rect x="282.4" y="234.0" width="89.60000000000001" height="26.6" rx="2" fill="#0b1629" stroke="#9fb0cf" stroke-opacity=".35"/><rect x="288.0" y="239.7" width="11.200000000000001" height="15.200000000000001" rx="1" fill="#f5a524" opacity="1"/><rect x="309.0" y="239.7" width="11.200000000000001" height="15.200000000000001" rx="1" fill="#9fb0cf" opacity="0.5"/><rect x="330.0" y="239.7" width="11.200000000000001" height="15.200000000000001" rx="1" fill="#9fb0cf" opacity="0.5"/><rect x="351.0" y="239.7" width="11.200000000000001" height="15.200000000000001" rx="1" fill="#9fb0cf" opacity="0.5"/><rect x="282.4" y="275.79999999999995" width="89.60000000000001" height="26.6" rx="2" fill="#0b1629" stroke="#9fb0cf" stroke-opacity=".35"/><rect x="288.0" y="281.5" width="11.200000000000001" height="15.200000000000001" rx="1" fill="#f5a524" opacity="1"/><rect x="309.0" y="281.5" width="11.200000000000001" height="15.200000000000001" rx="1" fill="#9fb0cf" opacity="0.5"/><rect x="330.0" y="281.5" width="11.200000000000001" height="15.200000000000001" rx="1" fill="#9fb0cf" opacity="0.5"/><rect x="351.0" y="281.5" width="11.200000000000001" height="15.200000000000001" rx="1" fill="#9fb0cf" opacity="0.5"/><rect x="282.4" y="317.6" width="89.60000000000001" height="26.6" rx="2" fill="#0b1629" stroke="#9fb0cf" stroke-opacity=".35"/><rect x="288.0" y="323.3" width="11.200000000000001" height="15.200000000000001" rx="1" fill="#f5a524" opacity="1"/><rect x="309.0" y="323.3" width="11.200000000000001" height="15.200000000000001" rx="1" fill="#9fb0cf" opacity="0.5"/><rect x="330.0" y="323.3" width="11.200000000000001" height="15.200000000000001" rx="1" fill="#9fb0cf" opacity="0.5"/><rect x="351.0" y="323.3" width="11.200000000000001" height="15.200000000000001" rx="1" fill="#9fb0cf" opacity="0.5"/><rect x="282.4" y="359.4" width="89.60000000000001" height="26.6" rx="2" fill="#0b1629" stroke="#9fb0cf" stroke-opacity=".35"/><rect x="288.0" y="365.1" width="11.200000000000001" height="15.200000000000001" rx="1" fill="#f5a524" opacity="1"/><rect x="309.0" y="365.1" width="11.200000000000001" height="15.200000000000001" rx="1" fill="#9fb0cf" opacity="0.5"/><rect x="330.0" y="365.1" width="11.200000000000001" height="15.200000000000001" rx="1" fill="#9fb0cf" opacity="0.5"/><rect x="351.0" y="365.1" width="11.200000000000001" height="15.200000000000001" rx="1" fill="#9fb0cf" opacity="0.5"/><rect x="377.6" y="291.0" width="5.6000000000000005" height="45.6" rx="2" fill="#9fb0cf" opacity=".6"/><rect x="260.0" y="486" width="136.0" height="14" fill="#0b1629"/><rect x="400.0" y="120" width="136.0" height="380" rx="5" fill="url(#steel)" stroke="#9fb0cf" stroke-opacity=".45"/><rect x="416.8" y="142.8" width="100.8" height="53.2" rx="3" fill="#0a1426" stroke="#f5a524" stroke-opacity=".6"/><rect x="425.2" y="154.2" width="53.2" height="30.400000000000002" rx="2" fill="#0e3b2c"/><circle cx="492.4" cy="169.4" r="4.2" fill="#f5a524"/><circle cx="505.0" cy="169.4" r="4.2" fill="#22c55e"/><rect x="422.4" y="234.0" width="89.60000000000001" height="26.6" rx="2" fill="#0b1629" stroke="#9fb0cf" stroke-opacity=".35"/><rect x="428.0" y="239.7" width="11.200000000000001" height="15.200000000000001" rx="1" fill="#f5a524" opacity="1"/><rect x="449.0" y="239.7" width="11.200000000000001" height="15.200000000000001" rx="1" fill="#9fb0cf" opacity="0.5"/><rect x="470.0" y="239.7" width="11.200000000000001" height="15.200000000000001" rx="1" fill="#9fb0cf" opacity="0.5"/><rect x="491.0" y="239.7" width="11.200000000000001" height="15.200000000000001" rx="1" fill="#9fb0cf" opacity="0.5"/><rect x="422.4" y="275.79999999999995" width="89.60000000000001" height="26.6" rx="2" fill="#0b1629" stroke="#9fb0cf" stroke-opacity=".35"/><rect x="428.0" y="281.5" width="11.200000000000001" height="15.200000000000001" rx="1" fill="#f5a524" opacity="1"/><rect x="449.0" y="281.5" width="11.200000000000001" height="15.200000000000001" rx="1" fill="#9fb0cf" opacity="0.5"/><rect x="470.0" y="281.5" width="11.200000000000001" height="15.200000000000001" rx="1" fill="#9fb0cf" opacity="0.5"/><rect x="491.0" y="281.5" width="11.200000000000001" height="15.200000000000001" rx="1" fill="#9fb0cf" opacity="0.5"/><rect x="422.4" y="317.6" width="89.60000000000001" height="26.6" rx="2" fill="#0b1629" stroke="#9fb0cf" stroke-opacity=".35"/><rect x="428.0" y="323.3" width="11.200000000000001" height="15.200000000000001" rx="1" fill="#f5a524" opacity="1"/><rect x="449.0" y="323.3" width="11.200000000000001" height="15.200000000000001" rx="1" fill="#9fb0cf" opacity="0.5"/><rect x="470.0" y="323.3" width="11.200000000000001" height="15.200000000000001" rx="1" fill="#9fb0cf" opacity="0.5"/><rect x="491.0" y="323.3" width="11.200000000000001" height="15.200000000000001" rx="1" fill="#9fb0cf" opacity="0.5"/><rect x="422.4" y="359.4" width="89.60000000000001" height="26.6" rx="2" fill="#0b1629" stroke="#9fb0cf" stroke-opacity=".35"/><rect x="428.0" y="365.1" width="11.200000000000001" height="15.200000000000001" rx="1" fill="#f5a524" opacity="1"/><rect x="449.0" y="365.1" width="11.200000000000001" height="15.200000000000001" rx="1" fill="#9fb0cf" opacity="0.5"/><rect x="470.0" y="365.1" width="11.200000000000001" height="15.200000000000001" rx="1" fill="#9fb0cf" opacity="0.5"/><rect x="491.0" y="365.1" width="11.200000000000001" height="15.200000000000001" rx="1" fill="#9fb0cf" opacity="0.5"/><rect x="517.6" y="291.0" width="5.6000000000000005" height="45.6" rx="2" fill="#9fb0cf" opacity=".6"/><rect x="400.0" y="486" width="136.0" height="14" fill="#0b1629"/><rect x="540.0" y="120" width="136.0" height="380" rx="5" fill="url(#steel)" stroke="#9fb0cf" stroke-opacity=".45"/><rect x="556.8" y="142.8" width="100.8" height="53.2" rx="3" fill="#0a1426" stroke="#f5a524" stroke-opacity=".6"/><rect x="565.2" y="154.2" width="53.2" height="30.400000000000002" rx="2" fill="#0e3b2c"/><circle cx="632.4" cy="169.4" r="4.2" fill="#f5a524"/><circle cx="645.0" cy="169.4" r="4.2" fill="#22c55e"/><rect x="562.4" y="234.0" width="89.60000000000001" height="26.6" rx="2" fill="#0b1629" stroke="#9fb0cf" stroke-opacity=".35"/><rect x="568.0" y="239.7" width="11.200000000000001" height="15.200000000000001" rx="1" fill="#f5a524" opacity="1"/><rect x="589.0" y="239.7" width="11.200000000000001" height="15.200000000000001" rx="1" fill="#9fb0cf" opacity="0.5"/><rect x="610.0" y="239.7" width="11.200000000000001" height="15.200000000000001" rx="1" fill="#9fb0cf" opacity="0.5"/><rect x="631.0" y="239.7" width="11.200000000000001" height="15.200000000000001" rx="1" fill="#9fb0cf" opacity="0.5"/><rect x="562.4" y="275.79999999999995" width="89.60000000000001" height="26.6" rx="2" fill="#0b1629" stroke="#9fb0cf" stroke-opacity=".35"/><rect x="568.0" y="281.5" width="11.200000000000001" height="15.200000000000001" rx="1" fill="#f5a524" opacity="1"/><rect x="589.0" y="281.5" width="11.200000000000001" height="15.200000000000001" rx="1" fill="#9fb0cf" opacity="0.5"/><rect x="610.0" y="281.5" width="11.200000000000001" height="15.200000000000001" rx="1" fill="#9fb0cf" opacity="0.5"/><rect x="631.0" y="281.5" width="11.200000000000001" height="15.200000000000001" rx="1" fill="#9fb0cf" opacity="0.5"/><rect x="562.4" y="317.6" width="89.60000000000001" height="26.6" rx="2" fill="#0b1629" stroke="#9fb0cf" stroke-opacity=".35"/><rect x="568.0" y="323.3" width="11.200000000000001" height="15.200000000000001" rx="1" fill="#f5a524" opacity="1"/><rect x="589.0" y="323.3" width="11.200000000000001" height="15.200000000000001" rx="1" fill="#9fb0cf" opacity="0.5"/><rect x="610.0" y="323.3" width="11.200000000000001" height="15.200000000000001" rx="1" fill="#9fb0cf" opacity="0.5"/><rect x="631.0" y="323.3" width="11.200000000000001" height="15.200000000000001" rx="1" fill="#9fb0cf" opacity="0.5"/><rect x="562.4" y="359.4" width="89.60000000000001" height="26.6" rx="2" fill="#0b1629" stroke="#9fb0cf" stroke-opacity=".35"/><rect x="568.0" y="365.1" width="11.200000000000001" height="15.200000000000001" rx="1" fill="#f5a524" opacity="1"/><rect x="589.0" y="365.1" width="11.200000000000001" height="15.200000000000001" rx="1" fill="#9fb0cf" opacity="0.5"/><rect x="610.0" y="365.1" width="11.200000000000001" height="15.200000000000001" rx="1" fill="#9fb0cf" opacity="0.5"/><rect x="631.0" y="365.1" width="11.200000000000001" height="15.200000000000001" rx="1" fill="#9fb0cf" opacity="0.5"/><rect x="657.6" y="291.0" width="5.6000000000000005" height="45.6" rx="2" fill="#9fb0cf" opacity=".6"/><rect x="540.0" y="486" width="136.0" height="14" fill="#0b1629"/></g>
</svg>
