<svg xmlns="http://www.w3.org/2000/svg" viewBox="0 0 1200 630" width="1200" height="630">
<defs>
<linearGradient id="bg" x1="0" y1="0" x2="0" y2="1"><stop offset="0" stop-color="#1c1c20"/><stop offset="1" stop-color="#0a0a0b"/></linearGradient>
<radialGradient id="gl" cx="0.7" cy="0.35" r="0.6"><stop offset="0" stop-color="#ffd426" stop-opacity=".22"/><stop offset="1" stop-color="#ffd426" stop-opacity="0"/></radialGradient>
<pattern id="grid" width="32" height="32" patternUnits="userSpaceOnUse"><path d="M32 0H0V32" fill="none" stroke="#fff" stroke-opacity=".05"/></pattern>
<linearGradient id="steel" x1="0" y1="0" x2="0" y2="1"><stop offset="0" stop-color="#3a3a41"/><stop offset="1" stop-color="#26262b"/></linearGradient>
<linearGradient id="amber" x1="0" y1="0" x2="0" y2="1"><stop offset="0" stop-color="#ffdf58"/><stop offset="1" stop-color="#e6b800"/></linearGradient>
</defs>
<rect width="1200" height="630" fill="url(#bg)"/><rect width="1200" height="630" fill="url(#grid)"/><rect width="1200" height="630" fill="url(#gl)"/>
<path d="M330 150c90 120 140 190 140 260a140 140 0 0 1-280 0c0-70 50-140 140-260Z" fill="url(#amber)"/><path d="M870 140c30 90 150 140 150 270a150 150 0 0 1-300 0c0-80 60-120 80-190 30 50 50 70 70 80 10-60 0-110 0-160Z" fill="#3b82f6" opacity=".85"/><text x="600" y="360" font-size="80" font-family="Arial,sans-serif" font-weight="800" fill="#fff" text-anchor="middle" opacity=".9">vs</text>
</svg>
