<svg xmlns="http://www.w3.org/2000/svg" viewBox="0 0 1200 630" width="1200" height="630">
<defs>
<linearGradient id="bg" x1="0" y1="0" x2="0" y2="1"><stop offset="0" stop-color="#13213b"/><stop offset="1" stop-color="#060c18"/></linearGradient>
<radialGradient id="gl" cx="0.7" cy="0.35" r="0.6"><stop offset="0" stop-color="#f5a524" stop-opacity=".22"/><stop offset="1" stop-color="#f5a524" stop-opacity="0"/></radialGradient>
<pattern id="grid" width="32" height="32" patternUnits="userSpaceOnUse"><path d="M32 0H0V32" fill="none" stroke="#fff" stroke-opacity=".05"/></pattern>
<linearGradient id="steel" x1="0" y1="0" x2="0" y2="1"><stop offset="0" stop-color="#2a3f68"/><stop offset="1" stop-color="#1b2d50"/></linearGradient>
<linearGradient id="amber" x1="0" y1="0" x2="0" y2="1"><stop offset="0" stop-color="#ffbe3d"/><stop offset="1" stop-color="#d98a0b"/></linearGradient>
</defs>
<rect width="1200" height="630" fill="url(#bg)"/><rect width="1200" height="630" fill="url(#grid)"/><rect width="1200" height="630" fill="url(#gl)"/>

<g>
<rect x="80" y="428" width="330" height="22" rx="3" fill="#0b1629" stroke="#9fb0cf" stroke-opacity=".4"/>
<rect x="90" y="192.4" width="52.800000000000004" height="218.4" rx="6" fill="url(#steel)" stroke="#9fb0cf" stroke-opacity=".4"/>
<rect x="98" y="203.6" width="36.800000000000004" height="3" rx="1.5" fill="#000" opacity=".35"/><rect x="98" y="212.6" width="36.800000000000004" height="3" rx="1.5" fill="#000" opacity=".35"/><rect x="98" y="221.6" width="36.800000000000004" height="3" rx="1.5" fill="#000" opacity=".35"/><rect x="98" y="230.6" width="36.800000000000004" height="3" rx="1.5" fill="#000" opacity=".35"/><rect x="98" y="239.6" width="36.800000000000004" height="3" rx="1.5" fill="#000" opacity=".35"/><rect x="98" y="248.6" width="36.800000000000004" height="3" rx="1.5" fill="#000" opacity=".35"/><rect x="98" y="257.6" width="36.800000000000004" height="3" rx="1.5" fill="#000" opacity=".35"/><rect x="98" y="266.6" width="36.800000000000004" height="3" rx="1.5" fill="#000" opacity=".35"/><rect x="98" y="275.6" width="36.800000000000004" height="3" rx="1.5" fill="#000" opacity=".35"/><rect x="98" y="284.6" width="36.800000000000004" height="3" rx="1.5" fill="#000" opacity=".35"/><rect x="98" y="293.6" width="36.800000000000004" height="3" rx="1.5" fill="#000" opacity=".35"/><rect x="98" y="302.6" width="36.800000000000004" height="3" rx="1.5" fill="#000" opacity=".35"/><rect x="98" y="311.6" width="36.800000000000004" height="3" rx="1.5" fill="#000" opacity=".35"/><rect x="98" y="320.6" width="36.800000000000004" height="3" rx="1.5" fill="#000" opacity=".35"/><rect x="98" y="329.6" width="36.800000000000004" height="3" rx="1.5" fill="#000" opacity=".35"/><rect x="98" y="338.6" width="36.800000000000004" height="3" rx="1.5" fill="#000" opacity=".35"/><rect x="98" y="347.6" width="36.800000000000004" height="3" rx="1.5" fill="#000" opacity=".35"/><rect x="98" y="356.6" width="36.800000000000004" height="3" rx="1.5" fill="#000" opacity=".35"/><rect x="98" y="365.6" width="36.800000000000004" height="3" rx="1.5" fill="#000" opacity=".35"/><rect x="98" y="374.6" width="36.800000000000004" height="3" rx="1.5" fill="#000" opacity=".35"/><rect x="98" y="383.6" width="36.800000000000004" height="3" rx="1.5" fill="#000" opacity=".35"/>
<rect x="146.0" y="231.6" width="138.6" height="156.8" rx="10" fill="url(#amber)"/>
<rect x="155.9" y="209.2" width="118.8" height="33.6" rx="4" fill="#d98a0b"/>
<rect x="162.5" y="254.0" width="14.85" height="100.8" rx="3" fill="#000" opacity=".18"/><rect x="185.6" y="254.0" width="14.85" height="100.8" rx="3" fill="#000" opacity=".18"/><rect x="208.7" y="254.0" width="14.85" height="100.8" rx="3" fill="#000" opacity=".18"/><rect x="231.8" y="254.0" width="14.85" height="100.8" rx="3" fill="#000" opacity=".18"/><rect x="254.9" y="254.0" width="14.85" height="100.8" rx="3" fill="#000" opacity=".18"/>
<rect x="291.20000000000005" y="248.4" width="99.0" height="140.0" rx="33.6" fill="url(#steel)" stroke="#9fb0cf" stroke-opacity=".4"/>
<circle cx="340.7" cy="318.4" r="39.2" fill="none" stroke="#9fb0cf" stroke-opacity=".4"/>
<rect x="311.0" y="186.8" width="66.0" height="50.4" rx="4" fill="#0a1426" stroke="#f5a524" stroke-opacity=".7"/>
<rect x="317.6" y="195.2" width="52.800000000000004" height="19.6" rx="2" fill="#0e3b2c"/>
</g>
<g>
<rect x="440" y="428" width="330" height="22" rx="3" fill="#0b1629" stroke="#9fb0cf" stroke-opacity=".4"/>
<rect x="450" y="192.4" width="52.800000000000004" height="218.4" rx="6" fill="url(#steel)" stroke="#9fb0cf" stroke-opacity=".4"/>
<rect x="458" y="203.6" width="36.800000000000004" height="3" rx="1.5" fill="#000" opacity=".35"/><rect x="458" y="212.6" width="36.800000000000004" height="3" rx="1.5" fill="#000" opacity=".35"/><rect x="458" y="221.6" width="36.800000000000004" height="3" rx="1.5" fill="#000" opacity=".35"/><rect x="458" y="230.6" width="36.800000000000004" height="3" rx="1.5" fill="#000" opacity=".35"/><rect x="458" y="239.6" width="36.800000000000004" height="3" rx="1.5" fill="#000" opacity=".35"/><rect x="458" y="248.6" width="36.800000000000004" height="3" rx="1.5" fill="#000" opacity=".35"/><rect x="458" y="257.6" width="36.800000000000004" height="3" rx="1.5" fill="#000" opacity=".35"/><rect x="458" y="266.6" width="36.800000000000004" height="3" rx="1.5" fill="#000" opacity=".35"/><rect x="458" y="275.6" width="36.800000000000004" height="3" rx="1.5" fill="#000" opacity=".35"/><rect x="458" y="284.6" width="36.800000000000004" height="3" rx="1.5" fill="#000" opacity=".35"/><rect x="458" y="293.6" width="36.800000000000004" height="3" rx="1.5" fill="#000" opacity=".35"/><rect x="458" y="302.6" width="36.800000000000004" height="3" rx="1.5" fill="#000" opacity=".35"/><rect x="458" y="311.6" width="36.800000000000004" height="3" rx="1.5" fill="#000" opacity=".35"/><rect x="458" y="320.6" width="36.800000000000004" height="3" rx="1.5" fill="#000" opacity=".35"/><rect x="458" y="329.6" width="36.800000000000004" height="3" rx="1.5" fill="#000" opacity=".35"/><rect x="458" y="338.6" width="36.800000000000004" height="3" rx="1.5" fill="#000" opacity=".35"/><rect x="458" y="347.6" width="36.800000000000004" height="3" rx="1.5" fill="#000" opacity=".35"/><rect x="458" y="356.6" width="36.800000000000004" height="3" rx="1.5" fill="#000" opacity=".35"/><rect x="458" y="365.6" width="36.800000000000004" height="3" rx="1.5" fill="#000" opacity=".35"/><rect x="458" y="374.6" width="36.800000000000004" height="3" rx="1.5" fill="#000" opacity=".35"/><rect x="458" y="383.6" width="36.800000000000004" height="3" rx="1.5" fill="#000" opacity=".35"/>
<rect x="506.0" y="231.6" width="138.6" height="156.8" rx="10" fill="url(#amber)"/>
<rect x="515.9" y="209.2" width="118.8" height="33.6" rx="4" fill="#d98a0b"/>
<rect x="522.5" y="254.0" width="14.85" height="100.8" rx="3" fill="#000" opacity=".18"/><rect x="545.6" y="254.0" width="14.85" height="100.8" rx="3" fill="#000" opacity=".18"/><rect x="568.7" y="254.0" width="14.85" height="100.8" rx="3" fill="#000" opacity=".18"/><rect x="591.8" y="254.0" width="14.85" height="100.8" rx="3" fill="#000" opacity=".18"/><rect x="614.9" y="254.0" width="14.85" height="100.8" rx="3" fill="#000" opacity=".18"/>
<rect x="651.2" y="248.4" width="99.0" height="140.0" rx="33.6" fill="url(#steel)" stroke="#9fb0cf" stroke-opacity=".4"/>
<circle cx="700.7" cy="318.4" r="39.2" fill="none" stroke="#9fb0cf" stroke-opacity=".4"/>
<rect x="671.0" y="186.8" width="66.0" height="50.4" rx="4" fill="#0a1426" stroke="#f5a524" stroke-opacity=".7"/>
<rect x="677.6" y="195.2" width="52.800000000000004" height="19.6" rx="2" fill="#0e3b2c"/>
</g>
<g>
<rect x="800" y="428" width="330" height="22" rx="3" fill="#0b1629" stroke="#9fb0cf" stroke-opacity=".4"/>
<rect x="810" y="192.4" width="52.800000000000004" height="218.4" rx="6" fill="url(#steel)" stroke="#9fb0cf" stroke-opacity=".4"/>
<rect x="818" y="203.6" width="36.800000000000004" height="3" rx="1.5" fill="#000" opacity=".35"/><rect x="818" y="212.6" width="36.800000000000004" height="3" rx="1.5" fill="#000" opacity=".35"/><rect x="818" y="221.6" width="36.800000000000004" height="3" rx="1.5" fill="#000" opacity=".35"/><rect x="818" y="230.6" width="36.800000000000004" height="3" rx="1.5" fill="#000" opacity=".35"/><rect x="818" y="239.6" width="36.800000000000004" height="3" rx="1.5" fill="#000" opacity=".35"/><rect x="818" y="248.6" width="36.800000000000004" height="3" rx="1.5" fill="#000" opacity=".35"/><rect x="818" y="257.6" width="36.800000000000004" height="3" rx="1.5" fill="#000" opacity=".35"/><rect x="818" y="266.6" width="36.800000000000004" height="3" rx="1.5" fill="#000" opacity=".35"/><rect x="818" y="275.6" width="36.800000000000004" height="3" rx="1.5" fill="#000" opacity=".35"/><rect x="818" y="284.6" width="36.800000000000004" height="3" rx="1.5" fill="#000" opacity=".35"/><rect x="818" y="293.6" width="36.800000000000004" height="3" rx="1.5" fill="#000" opacity=".35"/><rect x="818" y="302.6" width="36.800000000000004" height="3" rx="1.5" fill="#000" opacity=".35"/><rect x="818" y="311.6" width="36.800000000000004" height="3" rx="1.5" fill="#000" opacity=".35"/><rect x="818" y="320.6" width="36.800000000000004" height="3" rx="1.5" fill="#000" opacity=".35"/><rect x="818" y="329.6" width="36.800000000000004" height="3" rx="1.5" fill="#000" opacity=".35"/><rect x="818" y="338.6" width="36.800000000000004" height="3" rx="1.5" fill="#000" opacity=".35"/><rect x="818" y="347.6" width="36.800000000000004" height="3" rx="1.5" fill="#000" opacity=".35"/><rect x="818" y="356.6" width="36.800000000000004" height="3" rx="1.5" fill="#000" opacity=".35"/><rect x="818" y="365.6" width="36.800000000000004" height="3" rx="1.5" fill="#000" opacity=".35"/><rect x="818" y="374.6" width="36.800000000000004" height="3" rx="1.5" fill="#000" opacity=".35"/><rect x="818" y="383.6" width="36.800000000000004" height="3" rx="1.5" fill="#000" opacity=".35"/>
<rect x="866.0" y="231.6" width="138.6" height="156.8" rx="10" fill="url(#amber)"/>
<rect x="875.9" y="209.2" width="118.8" height="33.6" rx="4" fill="#d98a0b"/>
<rect x="882.5" y="254.0" width="14.85" height="100.8" rx="3" fill="#000" opacity=".18"/><rect x="905.6" y="254.0" width="14.85" height="100.8" rx="3" fill="#000" opacity=".18"/><rect x="928.7" y="254.0" width="14.85" height="100.8" rx="3" fill="#000" opacity=".18"/><rect x="951.8" y="254.0" width="14.85" height="100.8" rx="3" fill="#000" opacity=".18"/><rect x="974.9" y="254.0" width="14.85" height="100.8" rx="3" fill="#000" opacity=".18"/>
<rect x="1011.2" y="248.4" width="99.0" height="140.0" rx="33.6" fill="url(#steel)" stroke="#9fb0cf" stroke-opacity=".4"/>
<circle cx="1060.7" cy="318.4" r="39.2" fill="none" stroke="#9fb0cf" stroke-opacity=".4"/>
<rect x="1031.0" y="186.8" width="66.0" height="50.4" rx="4" fill="#0a1426" stroke="#f5a524" stroke-opacity=".7"/>
<rect x="1037.6" y="195.2" width="52.800000000000004" height="19.6" rx="2" fill="#0e3b2c"/>
</g>
</svg>
