<svg xmlns="http://www.w3.org/2000/svg" viewBox="0 0 800 600" width="800" height="600">
<defs>
<linearGradient id="bg" x1="0" y1="0" x2="0" y2="1"><stop offset="0" stop-color="#13213b"/><stop offset="1" stop-color="#060c18"/></linearGradient>
<radialGradient id="gl" cx="0.7" cy="0.35" r="0.6"><stop offset="0" stop-color="#f5a524" stop-opacity=".22"/><stop offset="1" stop-color="#f5a524" stop-opacity="0"/></radialGradient>
<pattern id="grid" width="32" height="32" patternUnits="userSpaceOnUse"><path d="M32 0H0V32" fill="none" stroke="#fff" stroke-opacity=".05"/></pattern>
<linearGradient id="steel" x1="0" y1="0" x2="0" y2="1"><stop offset="0" stop-color="#2a3f68"/><stop offset="1" stop-color="#1b2d50"/></linearGradient>
<linearGradient id="amber" x1="0" y1="0" x2="0" y2="1"><stop offset="0" stop-color="#ffbe3d"/><stop offset="1" stop-color="#d98a0b"/></linearGradient>
</defs>
<rect width="800" height="600" fill="url(#bg)"/><rect width="800" height="600" fill="url(#grid)"/><rect width="800" height="600" fill="url(#gl)"/>
<ellipse cx="400.0" cy="490" rx="336.0" ry="18" fill="#000" opacity=".35"/><line x1="48.0" x2="752.0" y1="490" y2="490" stroke="#9fb0cf" stroke-opacity=".25"/><rect x="70" y="110" width="260" height="380" fill="#0f1c33" stroke="#9fb0cf" stroke-opacity=".25"/><rect x="78" y="120" width="14" height="14" fill="#f5a524" opacity="0.8"/><rect x="104" y="120" width="14" height="14" fill="#1b2d50" opacity="1"/><rect x="130" y="120" width="14" height="14" fill="#1b2d50" opacity="1"/><rect x="156" y="120" width="14" height="14" fill="#1b2d50" opacity="1"/><rect x="182" y="120" width="14" height="14" fill="#1b2d50" opacity="1"/><rect x="208" y="120" width="14" height="14" fill="#f5a524" opacity="0.8"/><rect x="234" y="120" width="14" height="14" fill="#1b2d50" opacity="1"/><rect x="260" y="120" width="14" height="14" fill="#1b2d50" opacity="1"/><rect x="286" y="120" width="14" height="14" fill="#1b2d50" opacity="1"/><rect x="312" y="120" width="14" height="14" fill="#1b2d50" opacity="1"/><rect x="78" y="148" width="14" height="14" fill="#1b2d50" opacity="1"/><rect x="104" y="148" width="14" height="14" fill="#f5a524" opacity="0.8"/><rect x="130" y="148" width="14" height="14" fill="#1b2d50" opacity="1"/><rect x="156" y="148" width="14" height="14" fill="#1b2d50" opacity="1"/><rect x="182" y="148" width="14" height="14" fill="#1b2d50" opacity="1"/><rect x="208" y="148" width="14" height="14" fill="#1b2d50" opacity="1"/><rect x="234" y="148" width="14" height="14" fill="#f5a524" opacity="0.8"/><rect x="260" y="148" width="14" height="14" fill="#1b2d50" opacity="1"/><rect x="286" y="148" width="14" height="14" fill="#1b2d50" opacity="1"/><rect x="312" y="148" width="14" height="14" fill="#1b2d50" opacity="1"/><rect x="78" y="176" width="14" height="14" fill="#1b2d50" opacity="1"/><rect x="104" y="176" width="14" height="14" fill="#1b2d50" opacity="1"/><rect x="130" y="176" width="14" height="14" fill="#f5a524" opacity="0.8"/><rect x="156" y="176" width="14" height="14" fill="#1b2d50" opacity="1"/><rect x="182" y="176" width="14" height="14" fill="#1b2d50" opacity="1"/><rect x="208" y="176" width="14" height="14" fill="#1b2d50" opacity="1"/><rect x="234" y="176" width="14" height="14" fill="#1b2d50" opacity="1"/><rect x="260" y="176" width="14" height="14" fill="#f5a524" opacity="0.8"/><rect x="286" y="176" width="14" height="14" fill="#1b2d50" opacity="1"/><rect x="312" y="176" width="14" height="14" fill="#1b2d50" opacity="1"/><rect x="78" y="204" width="14" height="14" fill="#1b2d50" opacity="1"/><rect x="104" y="204" width="14" height="14" fill="#1b2d50" opacity="1"/><rect x="130" y="204" width="14" height="14" fill="#1b2d50" opacity="1"/><rect x="156" y="204" width="14" height="14" fill="#f5a524" opacity="0.8"/><rect x="182" y="204" width="14" height="14" fill="#1b2d50" opacity="1"/><rect x="208" y="204" width="14" height="14" fill="#1b2d50" opacity="1"/><rect x="234" y="204" width="14" height="14" fill="#1b2d50" opacity="1"/><rect x="260" y="204" width="14" height="14" fill="#1b2d50" opacity="1"/><rect x="286" y="204" width="14" height="14" fill="#f5a524" opacity="0.8"/><rect x="312" y="204" width="14" height="14" fill="#1b2d50" opacity="1"/><rect x="78" y="232" width="14" height="14" fill="#1b2d50" opacity="1"/><rect x="104" y="232" width="14" height="14" fill="#1b2d50" opacity="1"/><rect x="130" y="232" width="14" height="14" fill="#1b2d50" opacity="1"/><rect x="156" y="232" width="14" height="14" fill="#1b2d50" opacity="1"/><rect x="182" y="232" width="14" height="14" fill="#f5a524" opacity="0.8"/><rect x="208" y="232" width="14" height="14" fill="#1b2d50" opacity="1"/><rect x="234" y="232" width="14" height="14" fill="#1b2d50" opacity="1"/><rect x="260" y="232" width="14" height="14" fill="#1b2d50" opacity="1"/><rect x="286" y="232" width="14" height="14" fill="#1b2d50" opacity="1"/><rect x="312" y="232" width="14" height="14" fill="#f5a524" opacity="0.8"/><rect x="78" y="260" width="14" height="14" fill="#f5a524" opacity="0.8"/><rect x="104" y="260" width="14" height="14" fill="#1b2d50" opacity="1"/><rect x="130" y="260" width="14" height="14" fill="#1b2d50" opacity="1"/><rect x="156" y="260" width="14" height="14" fill="#1b2d50" opacity="1"/><rect x="182" y="260" width="14" height="14" fill="#1b2d50" opacity="1"/><rect x="208" y="260" width="14" height="14" fill="#f5a524" opacity="0.8"/><rect x="234" y="260" width="14" height="14" fill="#1b2d50" opacity="1"/><rect x="260" y="260" width="14" height="14" fill="#1b2d50" opacity="1"/><rect x="286" y="260" width="14" height="14" fill="#1b2d50" opacity="1"/><rect x="312" y="260" width="14" height="14" fill="#1b2d50" opacity="1"/><rect x="78" y="288" width="14" height="14" fill="#1b2d50" opacity="1"/><rect x="104" y="288" width="14" height="14" fill="#f5a524" opacity="0.8"/><rect x="130" y="288" width="14" height="14" fill="#1b2d50" opacity="1"/><rect x="156" y="288" width="14" height="14" fill="#1b2d50" opacity="1"/><rect x="182" y="288" width="14" height="14" fill="#1b2d50" opacity="1"/><rect x="208" y="288" width="14" height="14" fill="#1b2d50" opacity="1"/><rect x="234" y="288" width="14" height="14" fill="#f5a524" opacity="0.8"/><rect x="260" y="288" width="14" height="14" fill="#1b2d50" opacity="1"/><rect x="286" y="288" width="14" height="14" fill="#1b2d50" opacity="1"/><rect x="312" y="288" width="14" height="14" fill="#1b2d50" opacity="1"/><rect x="78" y="316" width="14" height="14" fill="#1b2d50" opacity="1"/><rect x="104" y="316" width="14" height="14" fill="#1b2d50" opacity="1"/><rect x="130" y="316" width="14" height="14" fill="#f5a524" opacity="0.8"/><rect x="156" y="316" width="14" height="14" fill="#1b2d50" opacity="1"/><rect x="182" y="316" width="14" height="14" fill="#1b2d50" opacity="1"/><rect x="208" y="316" width="14" height="14" fill="#1b2d50" opacity="1"/><rect x="234" y="316" width="14" height="14" fill="#1b2d50" opacity="1"/><rect x="260" y="316" width="14" height="14" fill="#f5a524" opacity="0.8"/><rect x="286" y="316" width="14" height="14" fill="#1b2d50" opacity="1"/><rect x="312" y="316" width="14" height="14" fill="#1b2d50" opacity="1"/><rect x="78" y="344" width="14" height="14" fill="#1b2d50" opacity="1"/><rect x="104" y="344" width="14" height="14" fill="#1b2d50" opacity="1"/><rect x="130" y="344" width="14" height="14" fill="#1b2d50" opacity="1"/><rect x="156" y="344" width="14" height="14" fill="#f5a524" opacity="0.8"/><rect x="182" y="344" width="14" height="14" fill="#1b2d50" opacity="1"/><rect x="208" y="344" width="14" height="14" fill="#1b2d50" opacity="1"/><rect x="234" y="344" width="14" height="14" fill="#1b2d50" opacity="1"/><rect x="260" y="344" width="14" height="14" fill="#1b2d50" opacity="1"/><rect x="286" y="344" width="14" height="14" fill="#f5a524" opacity="0.8"/><rect x="312" y="344" width="14" height="14" fill="#1b2d50" opacity="1"/><rect x="78" y="372" width="14" height="14" fill="#1b2d50" opacity="1"/><rect x="104" y="372" width="14" height="14" fill="#1b2d50" opacity="1"/><rect x="130" y="372" width="14" height="14" fill="#1b2d50" opacity="1"/><rect x="156" y="372" width="14" height="14" fill="#1b2d50" opacity="1"/><rect x="182" y="372" width="14" height="14" fill="#f5a524" opacity="0.8"/><rect x="208" y="372" width="14" height="14" fill="#1b2d50" opacity="1"/><rect x="234" y="372" width="14" height="14" fill="#1b2d50" opacity="1"/><rect x="260" y="372" width="14" height="14" fill="#1b2d50" opacity="1"/><rect x="286" y="372" width="14" height="14" fill="#1b2d50" opacity="1"/><rect x="312" y="372" width="14" height="14" fill="#f5a524" opacity="0.8"/><rect x="78" y="400" width="14" height="14" fill="#f5a524" opacity="0.8"/><rect x="104" y="400" width="14" height="14" fill="#1b2d50" opacity="1"/><rect x="130" y="400" width="14" height="14" fill="#1b2d50" opacity="1"/><rect x="156" y="400" width="14" height="14" fill="#1b2d50" opacity="1"/><rect x="182" y="400" width="14" height="14" fill="#1b2d50" opacity="1"/><rect x="208" y="400" width="14" height="14" fill="#f5a524" opacity="0.8"/><rect x="234" y="400" width="14" height="14" fill="#1b2d50" opacity="1"/><rect x="260" y="400" width="14" height="14" fill="#1b2d50" opacity="1"/><rect x="286" y="400" width="14" height="14" fill="#1b2d50" opacity="1"/><rect x="312" y="400" width="14" height="14" fill="#1b2d50" opacity="1"/><rect x="78" y="428" width="14" height="14" fill="#1b2d50" opacity="1"/><rect x="104" y="428" width="14" height="14" fill="#f5a524" opacity="0.8"/><rect x="130" y="428" width="14" height="14" fill="#1b2d50" opacity="1"/><rect x="156" y="428" width="14" height="14" fill="#1b2d50" opacity="1"/><rect x="182" y="428" width="14" height="14" fill="#1b2d50" opacity="1"/><rect x="208" y="428" width="14" height="14" fill="#1b2d50" opacity="1"/><rect x="234" y="428" width="14" height="14" fill="#f5a524" opacity="0.8"/><rect x="260" y="428" width="14" height="14" fill="#1b2d50" opacity="1"/><rect x="286" y="428" width="14" height="14" fill="#1b2d50" opacity="1"/><rect x="312" y="428" width="14" height="14" fill="#1b2d50" opacity="1"/><rect x="78" y="456" width="14" height="14" fill="#1b2d50" opacity="1"/><rect x="104" y="456" width="14" height="14" fill="#1b2d50" opacity="1"/><rect x="130" y="456" width="14" height="14" fill="#f5a524" opacity="0.8"/><rect x="156" y="456" width="14" height="14" fill="#1b2d50" opacity="1"/><rect x="182" y="456" width="14" height="14" fill="#1b2d50" opacity="1"/><rect x="208" y="456" width="14" height="14" fill="#1b2d50" opacity="1"/><rect x="234" y="456" width="14" height="14" fill="#1b2d50" opacity="1"/><rect x="260" y="456" width="14" height="14" fill="#f5a524" opacity="0.8"/><rect x="286" y="456" width="14" height="14" fill="#1b2d50" opacity="1"/><rect x="312" y="456" width="14" height="14" fill="#1b2d50" opacity="1"/><rect x="70" y="100" width="260" height="20" fill="#f5a524"/>
<g>
<polygon points="380,340 600,340 633.0,307.0 413.0,307.0" fill="#2a3f68"/>
<polygon points="600,340 633.0,307.0 633.0,457.0 600,490" fill="#14233f"/>
<rect x="380" y="340" width="220" height="150" rx="6" fill="url(#steel)" stroke="#9fb0cf" stroke-opacity=".35"/>
<rect x="380" y="474" width="220" height="16" fill="#0b1629"/>
<rect x="398" y="362" width="61.60000000000001" height="82.5" rx="4" fill="none" stroke="#9fb0cf" stroke-opacity=".35"/>
<rect x="406" y="374" width="45.60000000000001" height="3" rx="1.5" fill="#000" opacity=".35"/><rect x="406" y="384" width="45.60000000000001" height="3" rx="1.5" fill="#000" opacity=".35"/><rect x="406" y="394" width="45.60000000000001" height="3" rx="1.5" fill="#000" opacity=".35"/><rect x="406" y="404" width="45.60000000000001" height="3" rx="1.5" fill="#000" opacity=".35"/><rect x="406" y="414" width="45.60000000000001" height="3" rx="1.5" fill="#000" opacity=".35"/>
<rect x="463.6" y="362" width="66.0" height="82.5" rx="4" fill="none" stroke="#9fb0cf" stroke-opacity=".35"/>
<rect x="542.8" y="362" width="44.0" height="54.0" rx="4" fill="#0a1426" stroke="#f5a524" stroke-opacity=".7"/>
<rect x="547.2" y="370" width="35.2" height="18.0" rx="2" fill="#0e3b2c"/>
<circle cx="553.8" cy="394.0" r="4" fill="#f5a524"/><circle cx="564.8" cy="394.0" r="4" fill="#22c55e"/><circle cx="575.8" cy="394.0" r="4" fill="#ef4444"/>
<rect x="380" y="448.0" width="220" height="6" fill="url(#amber)"/>
<rect x="534.0" y="281.0" width="16" height="30" rx="3" fill="#0b1629" stroke="#9fb0cf" stroke-opacity=".4"/>
</g><g><rect x="640.0" y="330" width="86.0" height="160" rx="5" fill="url(#steel)" stroke="#9fb0cf" stroke-opacity=".45"/><rect x="650.8" y="339.6" width="64.8" height="22.400000000000002" rx="3" fill="#0a1426" stroke="#f5a524" stroke-opacity=".6"/><rect x="656.2" y="344.4" width="34.2" height="12.8" rx="2" fill="#0e3b2c"/><circle cx="699.4" cy="350.8" r="2.6999999999999997" fill="#f5a524"/><circle cx="707.5" cy="350.8" r="2.6999999999999997" fill="#22c55e"/><rect x="658.0" y="378.0" width="50.400000000000006" height="35.2" rx="4" fill="#0b1629" stroke="#9fb0cf" stroke-opacity=".4"/><rect x="677.8" y="384.4" width="10.799999999999999" height="22.400000000000002" rx="2" fill="url(#amber)"/><rect x="715.6" y="402.0" width="3.6" height="19.2" rx="2" fill="#9fb0cf" opacity=".6"/><rect x="640.0" y="476" width="86.0" height="14" fill="#0b1629"/></g>
</svg>
