<svg xmlns="http://www.w3.org/2000/svg" viewBox="0 0 800 600" width="800" height="600">
<defs>
<linearGradient id="bg" x1="0" y1="0" x2="0" y2="1"><stop offset="0" stop-color="#1c1c20"/><stop offset="1" stop-color="#0a0a0b"/></linearGradient>
<radialGradient id="gl" cx="0.7" cy="0.35" r="0.6"><stop offset="0" stop-color="#ffd426" stop-opacity=".22"/><stop offset="1" stop-color="#ffd426" stop-opacity="0"/></radialGradient>
<pattern id="grid" width="32" height="32" patternUnits="userSpaceOnUse"><path d="M32 0H0V32" fill="none" stroke="#fff" stroke-opacity=".05"/></pattern>
<linearGradient id="steel" x1="0" y1="0" x2="0" y2="1"><stop offset="0" stop-color="#3a3a41"/><stop offset="1" stop-color="#26262b"/></linearGradient>
<linearGradient id="amber" x1="0" y1="0" x2="0" y2="1"><stop offset="0" stop-color="#ffdf58"/><stop offset="1" stop-color="#e6b800"/></linearGradient>
</defs>
<rect width="800" height="600" fill="url(#bg)"/><rect width="800" height="600" fill="url(#grid)"/><rect width="800" height="600" fill="url(#gl)"/>
<ellipse cx="400.0" cy="490" rx="336.0" ry="18" fill="#000" opacity=".35"/><line x1="48.0" x2="752.0" y1="490" y2="490" stroke="#a1a1aa" stroke-opacity=".25"/><path d="M200 490 250 110 300 490M215 380h70M228 270h44M240 170h20" stroke="#a1a1aa" stroke-width="6" fill="none"/><rect x="238" y="96" width="24" height="40" fill="#ffd426"/>
<g>
<polygon points="400,380 640,380 664.2,355.8 424.2,355.8" fill="#3a3a41"/>
<polygon points="640,380 664.2,355.8 664.2,465.8 640,490" fill="#14233f"/>
<rect x="400" y="380" width="240" height="110" rx="6" fill="url(#steel)" stroke="#a1a1aa" stroke-opacity=".35"/>
<rect x="400" y="474" width="240" height="16" fill="#0d0d0f"/>
<rect x="418" y="402" width="67.2" height="60.50000000000001" rx="4" fill="none" stroke="#a1a1aa" stroke-opacity=".35"/>
<rect x="426" y="414" width="51.2" height="3" rx="1.5" fill="#000" opacity=".35"/><rect x="426" y="424" width="51.2" height="3" rx="1.5" fill="#000" opacity=".35"/><rect x="426" y="434" width="51.2" height="3" rx="1.5" fill="#000" opacity=".35"/>
<rect x="491.2" y="402" width="72.0" height="60.50000000000001" rx="4" fill="none" stroke="#a1a1aa" stroke-opacity=".35"/>
<rect x="577.6" y="402" width="48.0" height="39.6" rx="4" fill="#111113" stroke="#ffd426" stroke-opacity=".7"/>
<rect x="582.4" y="410" width="38.4" height="13.2" rx="2" fill="#0e3b2c"/>
<circle cx="589.6" cy="419.6" r="4" fill="#ffd426"/><circle cx="601.6" cy="419.6" r="4" fill="#22c55e"/><circle cx="613.6" cy="419.6" r="4" fill="#ef4444"/>
<rect x="400" y="459.2" width="240" height="6" fill="url(#amber)"/>
<rect x="556.2" y="329.8" width="16" height="30" rx="3" fill="#0d0d0f" stroke="#a1a1aa" stroke-opacity=".4"/>
</g><rect x="660" y="390" width="70" height="100" rx="6" fill="url(#steel)" stroke="#ffd426"/>
</svg>
