<svg xmlns="http://www.w3.org/2000/svg" viewBox="0 0 800 600" width="800" height="600">
<defs>
<linearGradient id="bg" x1="0" y1="0" x2="0" y2="1"><stop offset="0" stop-color="#1c1c20"/><stop offset="1" stop-color="#0a0a0b"/></linearGradient>
<radialGradient id="gl" cx="0.7" cy="0.35" r="0.6"><stop offset="0" stop-color="#ffd426" stop-opacity=".22"/><stop offset="1" stop-color="#ffd426" stop-opacity="0"/></radialGradient>
<pattern id="grid" width="32" height="32" patternUnits="userSpaceOnUse"><path d="M32 0H0V32" fill="none" stroke="#fff" stroke-opacity=".05"/></pattern>
<linearGradient id="steel" x1="0" y1="0" x2="0" y2="1"><stop offset="0" stop-color="#3a3a41"/><stop offset="1" stop-color="#26262b"/></linearGradient>
<linearGradient id="amber" x1="0" y1="0" x2="0" y2="1"><stop offset="0" stop-color="#ffdf58"/><stop offset="1" stop-color="#e6b800"/></linearGradient>
</defs>
<rect width="800" height="600" fill="url(#bg)"/><rect width="800" height="600" fill="url(#grid)"/><rect width="800" height="600" fill="url(#gl)"/>
<ellipse cx="400.0" cy="480" rx="336.0" ry="18" fill="#000" opacity=".35"/><line x1="48.0" x2="752.0" y1="480" y2="480" stroke="#a1a1aa" stroke-opacity=".25"/><path d="M60 480V260l170-70 170 70v220Z" fill="#16161a" stroke="#a1a1aa" stroke-opacity=".3"/><rect x="120" y="360" width="90" height="120" fill="#26262b"/><rect x="250" y="360" width="90" height="120" fill="#26262b"/>
<g>
<polygon points="430,330 720,330 753.0,297.0 463.0,297.0" fill="#3a3a41"/>
<polygon points="720,330 753.0,297.0 753.0,447.0 720,480" fill="#14233f"/>
<rect x="430" y="330" width="290" height="150" rx="6" fill="url(#steel)" stroke="#a1a1aa" stroke-opacity=".35"/>
<rect x="430" y="464" width="290" height="16" fill="#0d0d0f"/>
<rect x="448" y="352" width="81.2" height="82.5" rx="4" fill="none" stroke="#a1a1aa" stroke-opacity=".35"/>
<rect x="456" y="364" width="65.2" height="3" rx="1.5" fill="#000" opacity=".35"/><rect x="456" y="374" width="65.2" height="3" rx="1.5" fill="#000" opacity=".35"/><rect x="456" y="384" width="65.2" height="3" rx="1.5" fill="#000" opacity=".35"/><rect x="456" y="394" width="65.2" height="3" rx="1.5" fill="#000" opacity=".35"/><rect x="456" y="404" width="65.2" height="3" rx="1.5" fill="#000" opacity=".35"/>
<rect x="540.2" y="352" width="87.0" height="82.5" rx="4" fill="none" stroke="#a1a1aa" stroke-opacity=".35"/>
<rect x="644.6" y="352" width="58.0" height="54.0" rx="4" fill="#111113" stroke="#ffd426" stroke-opacity=".7"/>
<rect x="650.4" y="360" width="46.4" height="18.0" rx="2" fill="#0e3b2c"/>
<circle cx="659.1" cy="384.0" r="4" fill="#ffd426"/><circle cx="673.6" cy="384.0" r="4" fill="#22c55e"/><circle cx="688.1" cy="384.0" r="4" fill="#ef4444"/>
<rect x="430" y="438.0" width="290" height="6" fill="url(#amber)"/>
<rect x="622.5" y="271.0" width="16" height="30" rx="3" fill="#0d0d0f" stroke="#a1a1aa" stroke-opacity=".4"/>
</g>
</svg>
